<svg width="24" height="24" viewBox="0 0 24 24" fill="none" xmlns="http://www.w3.org/2000/svg">
              <path d="M10 21L17 21C18.1046 21 19 20.1046 19 19V9.41421C19 9.149 18.8946 8.89464 18.7071 8.70711L13.2929 3.29289C13.1054 3.10536 12.851 3 12.5858 3L7 3C5.89543 3 5 3.89543 5 5L5 16M5 21L9.87868 16.1213M9.87868 16.1213C10.4216 16.6642 11.1716 17 12 17C13.6569 17 15 15.6569 15 14C15 12.3431 13.6569 11 12 11C10.3431 11 9 12.3431 9 14C9 14.8284 9.33579 15.5784 9.87868 16.1213Z" stroke="url(#paint0_linear_506_1296)" stroke-width="2" stroke-linecap="round"/>
              <defs>
                <linearGradient id="paint0_linear_506_1296" x1="5" y1="12.2093" x2="19" y2="12.2093" gradientUnits="userSpaceOnUse">
                  <stop stop-color="#F66100"/>
                  <stop offset="1" stop-color="#F4BC2C"/>
                </linearGradient>
              </defs>
            </svg>