<svg width="80" height="24" viewBox="0 0 80 24" fill="none" xmlns="http://www.w3.org/2000/svg">
<path d="M1.11517 23.4717C0.958631 23.4717 0.825575 23.4179 0.715999 23.3102C0.606424 23.2026 0.551636 23.0719 0.551636 22.9182V7.90536C0.551636 7.73624 0.598597 7.59787 0.692519 7.49026C0.802094 7.38264 0.942977 7.32883 1.11517 7.32883H2.94665C3.24407 7.32883 3.47104 7.45951 3.62758 7.72087L10.343 17.96V7.90536C10.343 7.73624 10.39 7.59787 10.4839 7.49026C10.5935 7.38264 10.7343 7.32883 10.9065 7.32883H12.9259C13.098 7.32883 13.2389 7.38264 13.3485 7.49026C13.4581 7.59787 13.5129 7.73624 13.5129 7.90536V22.8951C13.5129 23.0643 13.4581 23.2026 13.3485 23.3102C13.2389 23.4179 13.1059 23.4717 12.9493 23.4717H11.0944C10.7813 23.4717 10.5465 23.341 10.39 23.0796L3.69802 13.0711V22.9182C3.69802 23.0719 3.64323 23.2026 3.53366 23.3102C3.43974 23.4179 3.30668 23.4717 3.13449 23.4717H1.11517Z" fill="#18181B"/>
<path d="M30.8433 23.4717C30.7181 23.4717 30.6007 23.4247 30.4911 23.3308C30.3972 23.2369 30.3502 23.1194 30.3502 22.9786C30.3502 22.9273 30.3712 22.8551 30.4132 22.7619C30.4328 22.7181 30.4579 22.677 30.4853 22.6376L33.8482 17.8002C34.2467 17.2269 35.0951 17.2281 35.492 17.8025L36.2193 18.8549C36.46 19.2032 36.4552 19.6653 36.2075 20.0087L34.0132 23.049C33.8097 23.3308 33.567 23.4717 33.2853 23.4717H30.8433Z" fill="#18181B"/>
<path d="M44.2595 23.4717C44.3847 23.4717 44.5021 23.4247 44.6117 23.3308C44.7056 23.2369 44.7526 23.1194 44.7526 22.9786C44.7526 22.9273 44.7316 22.8551 44.6896 22.7619C44.6699 22.7181 44.6449 22.677 44.6175 22.6376L41.2546 17.8002C40.8561 17.2269 40.0077 17.2281 39.6108 17.8025L38.8835 18.8549C38.6428 19.2032 38.6476 19.6653 38.8953 20.0087L41.0896 23.049C41.2931 23.3308 41.5357 23.4717 41.8175 23.4717H44.2595Z" fill="#18181B"/>
<path d="M37.5724 18.5486C37.303 18.5486 37.0966 18.1817 37.0966 18.1817L30.5597 8.11251C30.4971 8.01859 30.4658 7.92467 30.4658 7.83074C30.4658 7.68986 30.5128 7.57246 30.6067 7.47854C30.7163 7.38461 30.8337 7.33765 30.9589 7.33765H33.4244C33.7061 7.33765 33.9488 7.48636 34.1523 7.78378L37.5804 12.8086L46.1684 0.446129C46.3406 0.14871 46.5832 0 46.8963 0H49.2209C49.3461 0 49.4557 0.0469613 49.5496 0.140884C49.6592 0.234806 49.714 0.352208 49.714 0.493091C49.714 0.555706 49.6826 0.649627 49.62 0.774856L38.0482 18.1817C38.0482 18.1817 37.8419 18.5486 37.5724 18.5486Z" fill="#F66100"/>
<path d="M17.7166 23.4717C17.5601 23.4717 17.427 23.4179 17.3174 23.3102C17.2079 23.2026 17.1531 23.0719 17.1531 22.9182V7.90536C17.1531 7.73624 17.2 7.59787 17.294 7.49026C17.4035 7.38264 17.5444 7.32883 17.7166 7.32883H28.0715C28.2437 7.32883 28.3846 7.38264 28.4942 7.49026C28.6037 7.59787 28.6585 7.73624 28.6585 7.90536V9.45046C28.6585 9.61957 28.6037 9.75794 28.4942 9.86556C28.3846 9.9578 28.2437 10.0039 28.0715 10.0039H20.3699V14.0396H27.5549C27.7271 14.0396 27.868 14.0934 27.9776 14.2011C28.0872 14.3087 28.1419 14.4471 28.1419 14.6162V16.069C28.1419 16.2381 28.0872 16.3765 27.9776 16.4841C27.868 16.5764 27.7271 16.6225 27.5549 16.6225H20.3699V20.7966H28.2593C28.4315 20.7966 28.5724 20.8504 28.682 20.958C28.7916 21.0502 28.8464 21.1809 28.8464 21.35V22.9182C28.8464 23.0873 28.7916 23.2257 28.682 23.3333C28.5724 23.4255 28.4315 23.4717 28.2593 23.4717H17.7166Z" fill="#18181B"/>
<path d="M53.8579 24C51.729 24 50.0775 23.4599 48.9035 22.3798C47.7295 21.2997 47.1425 19.6639 47.1425 17.4724V7.91584C47.1425 7.74365 47.1894 7.60277 47.2833 7.49319C47.3929 7.38361 47.5338 7.32883 47.706 7.32883H49.8662C50.0384 7.32883 50.1793 7.38361 50.2888 7.49319C50.3984 7.60277 50.4532 7.74365 50.4532 7.91584V17.4724C50.4532 18.709 50.7428 19.6404 51.322 20.2666C51.9168 20.8927 52.7543 21.2058 53.8344 21.2058C54.9145 21.2058 55.7441 20.8927 56.3233 20.2666C56.9182 19.6404 57.2156 18.709 57.2156 17.4724V7.91584C57.2156 7.74365 57.2704 7.60277 57.38 7.49319C57.4895 7.38361 57.6304 7.32883 57.8026 7.32883H59.9628C60.135 7.32883 60.2681 7.38361 60.362 7.49319C60.4716 7.60277 60.5263 7.74365 60.5263 7.91584V17.4724C60.5263 19.6639 59.9393 21.2997 58.7653 22.3798C57.6069 23.4599 55.9711 24 53.8579 24Z" fill="#18181B"/>
<path d="M64.6088 23.4717C64.4523 23.4717 64.3192 23.4179 64.2097 23.3102C64.1001 23.2026 64.0453 23.0719 64.0453 22.9182V7.90536C64.0453 7.73624 64.0922 7.59787 64.1862 7.49026C64.2957 7.38264 64.4366 7.32883 64.6088 7.32883H66.5107C66.8082 7.32883 67.043 7.47488 67.2152 7.76699L71.7469 16.0229L76.2786 7.76699C76.4508 7.47488 76.6856 7.32883 76.983 7.32883H78.8615C79.0337 7.32883 79.1746 7.38264 79.2841 7.49026C79.3937 7.59787 79.4485 7.73624 79.4485 7.90536V22.9182C79.4485 23.0873 79.3937 23.2257 79.2841 23.3333C79.1746 23.4255 79.0337 23.4717 78.8615 23.4717H76.8422C76.6856 23.4717 76.5526 23.4179 76.443 23.3102C76.3334 23.2026 76.2786 23.0719 76.2786 22.9182V13.0019L73.0148 19.09C72.8426 19.4283 72.5844 19.5974 72.24 19.5974H71.2538C70.9251 19.5974 70.659 19.4283 70.4555 19.09L67.1917 13.0019V22.9182C67.1917 23.0719 67.1369 23.2026 67.0273 23.3102C66.9334 23.4179 66.8003 23.4717 66.6281 23.4717H64.6088Z" fill="#18181B"/>
</svg>
