<svg width="32" height="32" viewBox="0 0 32 32" fill="none" xmlns="http://www.w3.org/2000/svg">
<path d="M9.29192 24.4717C9.16669 24.4717 9.04929 24.4247 8.93971 24.3308C8.84579 24.2369 8.79883 24.1195 8.79883 23.9786C8.79883 23.9273 8.81981 23.8551 8.86177 23.7619C8.88145 23.7181 8.90649 23.677 8.93387 23.6377L12.2968 18.8002C12.6953 18.2269 13.5437 18.2281 13.9406 18.8025L14.6679 19.8549C14.9086 20.2032 14.9038 20.6654 14.6561 21.0087L12.4618 24.049C12.2583 24.3308 12.0157 24.4717 11.7339 24.4717H9.29192Z" fill="url(#paint0_linear_602_4266)"/>
<path d="M22.7081 24.4717C22.8333 24.4717 22.9507 24.4247 23.0603 24.3308C23.1542 24.2369 23.2012 24.1195 23.2012 23.9786C23.2012 23.9273 23.1802 23.8551 23.1382 23.7619C23.1185 23.7181 23.0935 23.677 23.0661 23.6377L19.7032 18.8002C19.3047 18.2269 18.4563 18.2281 18.0594 18.8025L17.3321 19.8549C17.0914 20.2032 17.0962 20.6654 17.3439 21.0087L19.5382 24.049C19.7417 24.3308 19.9843 24.4717 20.2661 24.4717H22.7081Z" fill="url(#paint1_linear_602_4266)"/>
<path d="M16.021 19.5486C15.7516 19.5486 15.5452 19.1817 15.5452 19.1817L9.00836 9.11251C8.94574 9.01859 8.91443 8.92467 8.91443 8.83074C8.91443 8.68986 8.9614 8.57246 9.05532 8.47854C9.16489 8.38461 9.2823 8.33765 9.40753 8.33765H11.873C12.1547 8.33765 12.3974 8.48636 12.6009 8.78378L16.029 13.8086L24.617 1.44613C24.7892 1.14871 25.0318 1 25.3449 1H27.6695C27.7947 1 27.9043 1.04696 27.9982 1.14088C28.1078 1.23481 28.1626 1.35221 28.1626 1.49309C28.1626 1.55571 28.1313 1.64963 28.0686 1.77486L16.4968 19.1817C16.4968 19.1817 16.2905 19.5486 16.021 19.5486Z" fill="url(#paint2_linear_602_4266)"/>
<defs>
<linearGradient id="paint0_linear_602_4266" x1="8.79883" y1="13.0088" x2="28.1626" y2="13.0088" gradientUnits="userSpaceOnUse">
<stop stop-color="#F66100"/>
<stop offset="1" stop-color="#F4BC2C"/>
</linearGradient>
<linearGradient id="paint1_linear_602_4266" x1="8.79883" y1="13.0088" x2="28.1626" y2="13.0088" gradientUnits="userSpaceOnUse">
<stop stop-color="#F66100"/>
<stop offset="1" stop-color="#F4BC2C"/>
</linearGradient>
<linearGradient id="paint2_linear_602_4266" x1="8.79883" y1="13.0088" x2="28.1626" y2="13.0088" gradientUnits="userSpaceOnUse">
<stop stop-color="#F66100"/>
<stop offset="1" stop-color="#F4BC2C"/>
</linearGradient>
</defs>
</svg>
